<svg width="0" height="0" class="hidden">
  <symbol fill="currentColor" xmlns="http://www.w3.org/2000/svg" viewBox="0 0 16 16" id="icon-caret-down">
    <path d="M7.247 11.14L2.451 5.658C1.885 5.013 2.345 4 3.204 4h9.592a1 1 0 0 1 .753 1.659l-4.796 5.48a1 1 0 0 1-1.506 0z"></path>
  </symbol>
  <symbol fill="currentColor" xmlns="http://www.w3.org/2000/svg" viewBox="0 0 16 16" id="icon-file">
    <path d="M4 1h5v1H4a1 1 0 0 0-1 1v10a1 1 0 0 0 1 1h8a1 1 0 0 0 1-1V6h1v7a2 2 0 0 1-2 2H4a2 2 0 0 1-2-2V3a2 2 0 0 1 2-2z"></path>
    <path d="M9 4.5V1l5 5h-3.5A1.5 1.5 0 0 1 9 4.5z"></path>
  </symbol>
  <symbol fill="currentColor" xmlns="http://www.w3.org/2000/svg" viewBox="0 0 16 16" id="icon-folder">
    <path d="M9.828 4a3 3 0 0 1-2.12-.879l-.83-.828A1 1 0 0 0 6.173 2H2.5a1 1 0 0 0-1 .981L1.546 4h-1L.5 3a2 2 0 0 1 2-2h3.672a2 2 0 0 1 1.414.586l.828.828A2 2 0 0 0 9.828 3v1z"></path>
    <path fill-rule="evenodd" d="M13.81 4H2.19a1 1 0 0 0-.996 1.09l.637 7a1 1 0 0 0 .995.91h10.348a1 1 0 0 0 .995-.91l.637-7A1 1 0 0 0 13.81 4zM2.19 3A2 2 0 0 0 .198 5.181l.637 7A2 2 0 0 0 2.826 14h10.348a2 2 0 0 0 1.991-1.819l.637-7A2 2 0 0 0 13.81 3H2.19z"></path>
  </symbol>
  <symbol fill="currentColor" xmlns="http://www.w3.org/2000/svg" viewBox="0 0 16 16" id="icon-folder-open">
    <path fill-rule="evenodd" d="M1 3.5A1.5 1.5 0 0 1 2.5 2h2.764c.958 0 1.76.56 2.311 1.184C7.985 3.648 8.48 4 9 4h4.5A1.5 1.5 0 0 1 15 5.5v.64c.57.265.94.876.856 1.546l-.64 5.124A2.5 2.5 0 0 1 12.733 15H3.266a2.5 2.5 0 0 1-2.481-2.19l-.64-5.124A1.5 1.5 0 0 1 1 6.14V3.5zM2 6h12v-.5a.5.5 0 0 0-.5-.5H9c-.964 0-1.71-.629-2.174-1.154C6.374 3.334 5.82 3 5.264 3H2.5a.5.5 0 0 0-.5.5V6zm-.367 1a.5.5 0 0 0-.496.562l.64 5.124A1.5 1.5 0 0 0 3.266 14h9.468a1.5 1.5 0 0 0 1.489-1.314l.64-5.124A.5.5 0 0 0 14.367 7H1.633z"></path>
  </symbol>
  <symbol fill="currentColor" xmlns="http://www.w3.org/2000/svg" viewBox="0 0 16 16" id="icon-jpg">
    <path fill-rule="evenodd" d="M14.002 2h-12a1 1 0 0 0-1 1v10a1 1 0 0 0 1 1h12a1 1 0 0 0 1-1V3a1 1 0 0 0-1-1zm-12-1a2 2 0 0 0-2 2v10a2 2 0 0 0 2 2h12a2 2 0 0 0 2-2V3a2 2 0 0 0-2-2h-12z"></path>
    <path d="M10.648 7.646a.5.5 0 0 1 .577-.093L15.002 9.5V14h-14v-2l2.646-2.354a.5.5 0 0 1 .63-.062l2.66 1.773 3.71-3.71z"></path>
    <path fill-rule="evenodd" d="M4.502 7a1.5 1.5 0 1 0 0-3 1.5 1.5 0 0 0 0 3z"></path>
  </symbol>
  <symbol fill="currentColor" xmlns="http://www.w3.org/2000/svg" viewBox="0 0 16 16" id="icon-zip">
    <path d="M4 1h5v1H4a1 1 0 0 0-1 1v10a1 1 0 0 0 1 1h8a1 1 0 0 0 1-1V6h1v7a2 2 0 0 1-2 2H4a2 2 0 0 1-2-2V3a2 2 0 0 1 2-2z"></path>
    <path d="M9 4.5V1l5 5h-3.5A1.5 1.5 0 0 1 9 4.5z"></path>
    <path fill-rule="evenodd" d="M5 8.5a1 1 0 0 1 1-1h1a1 1 0 0 1 1 1v.938l.4 1.599a1 1 0 0 1-.416 1.074l-.93.62a1 1 0 0 1-1.11 0l-.929-.62a1 1 0 0 1-.415-1.074L5 9.438V8.5zm2 0H6v.938a1 1 0 0 1-.03.243l-.4 1.598.93.62.929-.62-.4-1.598A1 1 0 0 1 7 9.438V8.5z"></path>
    <path d="M6 2h1.5v1H6zM5 3h1.5v1H5zm1 1h1.5v1H6zM5 5h1.5v1H5zm1 1h1.5v1H6V6z"></path>
  </symbol>
</svg>